<svg xmlns="http://www.w3.org/2000/svg" width="82.7" height="60.918" viewBox="0 0 82.7 60.918"><defs><style>.a,.e{fill:#fff;}.a,.b,.c,.e{stroke:#717171;}.a,.b{stroke-miterlimit:10;}.a,.b,.c,.d,.e{stroke-width:3px;}.b,.c,.d{fill:none;}.b,.c{stroke-linecap:round;}.c{stroke-linejoin:round;}.d{stroke:#707070;}.f{fill:#717171;}</style></defs><g transform="translate(-652.604 -556.5)"><g transform="translate(654.104 558)"><rect class="a" width="63.563" height="49.57" rx="12"/><line class="b" x1="13.253" y2="14.716" transform="translate(17.516 10.069)"/><line class="b" x1="10.446" y2="11.599" transform="translate(27.646 11.049)"/><path class="c" d="M810.8,285.667h0a22.461,22.461,0,0,0,6.023,8.272l.087.075H799.185" transform="translate(-769.637 -236.097)"/><path class="c" d="M744.258,285.667h0a22.461,22.461,0,0,1-6.023,8.272l-.087.075h17.728" transform="translate(-721.861 -236.097)"/><line class="c" x2="35.68" transform="translate(13.942 57.918)"/><line class="d" x2="63" transform="translate(0.396 39.5)"/></g><g transform="translate(707.53 574)"><path class="e" d="M5.795,0H20.48a5.792,5.792,0,0,1,5.795,5.79V36.128a5.792,5.792,0,0,1-5.795,5.79H5.795A5.792,5.792,0,0,1,0,36.128V5.79A5.792,5.792,0,0,1,5.795,0Z"/><rect class="f" width="10.585" height="2.711" rx="1.355" transform="translate(7.844 35.982)"/><line class="a" x2="26.274" transform="translate(0 6.842)"/><line class="a" x2="26.274" transform="translate(0 33.57)"/></g></g></svg>