<svg xmlns="http://www.w3.org/2000/svg" width="24.204" height="23.195" viewBox="0 0 24.204 23.195"><defs><style>.a{fill:none;stroke:#fff;stroke-linecap:round;stroke-linejoin:round;stroke-width:2px;}</style></defs><g transform="translate(1 1)"><path class="a" d="M14.019,31.009A1.009,1.009,0,1,1,13.009,30,1.009,1.009,0,0,1,14.019,31.009Z" transform="translate(-4.935 -10.824)"/><path class="a" d="M30.519,31.009A1.009,1.009,0,1,1,29.509,30,1.009,1.009,0,0,1,30.519,31.009Z" transform="translate(-10.333 -10.824)"/><path class="a" d="M1.5,1.5H5.537l2.7,13.514a2.019,2.019,0,0,0,2.019,1.625h9.81a2.019,2.019,0,0,0,2.019-1.625L23.7,6.546H6.546" transform="translate(-1.5 -1.5)"/></g></svg>